PathFileType	4	(X/Y/Z)	E:\Qualisys_Data\Carbon_Farble_Plate\Data\Amateur_Runner\S2\T2\S2T2V13_c3d.trc
DataRate	CameraRate	NumFrames	NumMarkers	Units	OrigDataRate	OrigDataStartFrame	OrigNumFrames
200.000000	200.000000	4	39	mm	200.000000	284	325
Frame#	Time	LSHO			RSHO			LICST			RICST			LASIS			LHEEL			RASIS			LTROC			RTROC			SACR			LTH1			LSK4			LTH2			LTH3			RHM5			LSK2			LTH4			RTH1			LTOE			RTH2			RTH3			RTH4			LLEP			RLEP			LSK1			LSK3			RSK1			LHM5			RSK2			LFT1			RSK3			RSK4			LLME			RLME			RTOE			RHEEL			RFT1			RFT2			LFT2			
		X1	Y1	Z1	X2	Y2	Z2	X3	Y3	Z3	X4	Y4	Z4	X5	Y5	Z5	X6	Y6	Z6	X7	Y7	Z7	X8	Y8	Z8	X9	Y9	Z9	X10	Y10	Z10	X11	Y11	Z11	X12	Y12	Z12	X13	Y13	Z13	X14	Y14	Z14	X15	Y15	Z15	X16	Y16	Z16	X17	Y17	Z17	X18	Y18	Z18	X19	Y19	Z19	X20	Y20	Z20	X21	Y21	Z21	X22	Y22	Z22	X23	Y23	Z23	X24	Y24	Z24	X25	Y25	Z25	X26	Y26	Z26	X27	Y27	Z27	X28	Y28	Z28	X29	Y29	Z29	X30	Y30	Z30	X31	Y31	Z31	X32	Y32	Z32	X33	Y33	Z33	X34	Y34	Z34	X35	Y35	Z35	X36	Y36	Z36	X37	Y37	Z37	X38	Y38	Z38	X39	Y39	Z39	

285	1.42	2170.361083984375	1483.804077148438	-419.4525451660156	2140.12646484375	1463.133666992188	-110.8842239379883	2119.0322265625	1014.010498046875	-413.1710205078125	2129.727783203125	1014.150695800781	-112.963493347168	2170.952880859375	961.3423461914062	-401.6611328125	1715.730346679688	205.6350555419922	-290.6044311523438	2188.659912109375	967.9859008789062	-144.2855834960938	2030.1796875	899.587158203125	-405.8566284179688	2066.05322265625	910.24609375	-93.87814331054688	2032.0068359375	1053.867431640625	-266.2425842285156	2101.432861328125	656.58154296875	-412.4550170898438	1840.07763671875	350.0299987792969	-387.4520263671875	2020.840576171875	674.1806030273438	-418.2258911132812	2076.967529296875	558.0659790039062	-389.7730102539062	2135.8408203125	143.3068389892578	-111.7702178955078	1894.230346679688	432.5663757324219	-404.534423828125	1994.2001953125	579.696044921875	-392.9252624511719	2299.190673828125	717.107666015625	-111.5133590698242	1887.237060546875	49.71474838256836	-305.0725402832031	2229.8681640625	684.1640625	-97.30795288085938	2337.6171875	624.8770751953125	-131.5331573486328	2264.324951171875	595.283447265625	-116.5739364624023	2010.314331054688	515.4802856445312	-390.9185180664062	2297.89892578125	562.8970336914062	-121.9766998291016	1960.560546875	391.0019226074219	-393.5260009765625	1906.052856445312	306.3672485351562	-382.3458862304688	2269.7763671875	447.3345336914062	-119.8880996704102	1832.347900390625	60.58705139160156	-364.766845703125	2206.101806640625	496.4563903808594	-115.4164123535156	1704.658081054688	178.6990203857422	-266.3981018066406	2207.61181640625	366.8945922851562	-127.6707077026367	2146.5146484375	417.6461181640625	-124.6295394897461	1776.237060546875	176.364501953125	-352.90087890625	2064.451904296875	242.0225677490234	-149.0798492431641	2211.00732421875	121.8903274536133	-163.9346313476562	2006.43212890625	259.0949401855469	-208.4041442871094	2008.676879882812	223.9587249755859	-238.3325958251953	1988.93603515625	233.2497100830078	-186.7510833740234	1694.50146484375	177.631103515625	-319.2328796386719
286	1.425	2187.06591796875	1488.42138671875	-418.1879577636719	2154.9970703125	1468.25927734375	-111.0436553955078	2136.318115234375	1017.910400390625	-412.8052062988281	2146.412353515625	1018.784301757812	-112.7930145263672	2187.916015625	965.0859375	-400.8142395019531	1727.502197265625	215.0031433105469	-293.0357055664062	2204.945556640625	972.1793212890624	-143.7706756591797	2046.00439453125	905.2227172851562	-406.1040344238281	2082.902587890625	915.7362670898438	-92.95703125	2048.39111328125	1058.471923828125	-266.5707092285156	2113.00341796875	660.4732055664062	-413.38037109375	1849.3046875	355.8822937011719	-388.7158203125	2032.702758789062	679.7782592773438	-418.4452514648438	2086.7353515625	562.8071899414062	-391.2348937988281	2169.388671875	138.8264007568359	-111.7716827392578	1902.905029296875	439.1065063476562	-405.5440063476562	2004.4736328125	586.2670288085938	-393.9835205078125	2315.47607421875	721.0562744140625	-111.2871170043945	1890.711791992188	48.58656692504883	-305.9112854003906	2245.96923828125	688.89306640625	-96.80490112304688	2353.24365234375	628.4306640625	-130.8597412109375	2279.311767578125	599.7586669921875	-116.1783599853516	2019.552124023438	521.992919921875	-391.9408569335938	2313.523681640625	566.2991333007812	-121.6749877929688	1969.195922851562	397.06787109375	-395.4741821289062	1915.066772460938	312.6392517089844	-384.9319458007812	2289.257080078125	448.6070861816406	-119.2733917236328	1836.392211914062	62.54789733886719	-365.7771606445312	2223.864990234375	495.0084838867188	-113.5421447753906	1715.5224609375	188.6927947998047	-268.6118774414062	2231.107666015625	365.1253662109375	-127.2039184570312	2167.567138671875	413.3835144042969	-123.7486877441406	1785.62646484375	181.4127197265625	-355.2122802734375	2093.332275390625	234.5246429443359	-148.8510589599609	2245.95849609375	121.9405975341797	-164.04248046875	2035.182006835938	248.5856628417969	-209.4373931884766	2038.747802734375	213.7912902832031	-238.3415222167969	2018.59033203125	221.7497100830078	-186.8543090820312	1704.93115234375	187.6007995605469	-321.5197143554688
287	1.43	2203.6689453125	1492.763061523438	-416.5208129882812	2169.9404296875	1472.245849609375	-110.9763031005859	2153.3291015625	1021.741516113281	-412.2124633789062	2163.340087890625	1023.055419921875	-112.6697311401367	2205.210205078125	968.9383544921876	-400.5329284667969	1740.417724609375	224.5008087158203	-295.5803527832031	2221.532470703125	976.3735961914062	-143.66015625	2063.05615234375	910.330322265625	-405.7586059570312	2099.416259765625	920.4548950195312	-92.21180725097656	2065.197509765625	1062.304077148438	-266.0350952148438	2124.850830078125	664.7772827148438	-414.0771179199219	1858.534790039062	362.070068359375	-390.6399536132812	2043.510375976562	686.056396484375	-421.0449523925781	2096.511474609375	567.9038696289062	-392.4734802246094	2203.383056640625	134.6538391113281	-112.2668762207031	1911.535400390625	445.0055236816406	-406.2110290527344	2014.8525390625	592.5637817382812	-394.6195068359375	2331.22265625	724.5175170898438	-110.6786499023438	1894.65185546875	47.73236465454102	-306.5863037109375	2261.44140625	693.1219482421875	-96.5467529296875	2368.439697265625	631.3883056640625	-130.0923309326172	2294.300048828125	603.2719116210938	-115.8135604858398	2028.556884765625	527.4356079101562	-392.9641418457031	2328.409912109375	569.3739013671875	-121.0216445922852	1978.494140625	403.1666259765625	-397.45263671875	1924.547973632812	319.0451965332031	-387.4627990722656	2309.330322265625	450.0284118652344	-118.1917266845703	1841.312866210938	64.53799438476562	-366.7144775390625	2241.266357421875	493.2446899414062	-111.6713638305664	1726.857788085938	199.4252014160156	-271.3245544433594	2254.0263671875	364.088623046875	-125.8202819824219	2188.687744140625	409.5576171875	-122.0470275878906	1795.468872070312	186.7878875732422	-357.7129821777344	2122.64697265625	226.8780975341797	-148.5545806884766	2280.91015625	122.1816864013672	-164.3616485595703	2063.7548828125	238.4428558349609	-209.09521484375	2069.24072265625	203.9804840087891	-238.4998779296875	2048.64697265625	210.1114501953125	-187.0408782958984	1716.568969726562	197.9617919921875	-324.1542358398438
288	1.435	2219.99169921875	1496.822509765625	-415.2056579589844	2185.092041015625	1476.1015625	-110.7697372436523	2170.588134765625	1025.352783203125	-411.7886352539062	2180.1484375	1027.301513671875	-112.2434616088867	2222.197265625	972.2616577148438	-399.6656188964844	1753.817626953125	233.6220855712891	-299.32080078125	2238.029541015625	979.6905517578124	-143.3563537597656	2079.77880859375	915.2333984375	-405.9349670410156	2115.7353515625	925.4038696289062	-91.90078735351562	2081.87890625	1066.626342773438	-265.5623168945312	2136.410400390625	668.99267578125	-414.8076171875	1867.7509765625	368.4795532226562	-392.0094909667969	2055.644775390625	692.007080078125	-420.49658203125	2106.5625	572.5109252929688	-393.6784362792969	2237.161376953125	131.1046447753906	-112.2339096069336	1921.13427734375	451.507568359375	-406.8952026367188	2025.258422851562	598.6354370117188	-395.1091613769531	2346.590576171875	727.4281616210938	-110.1351089477539	1898.370483398438	46.86236953735352	-306.980712890625	2276.508056640625	696.3381958007812	-97.20941925048828	2383.051513671875	634.22900390625	-129.2451782226562	2308.943603515625	606.6602783203125	-115.4391403198242	2038.076782226562	533.4718017578125	-394.0503845214844	2342.96533203125	571.8610229492188	-120.5122680664062	1987.889892578125	409.5966491699219	-398.865966796875	1933.858276367188	324.7044372558594	-389.4853820800781	2328.339599609375	451.2208862304688	-117.4020385742188	1846.468994140625	66.77876281738281	-368.0596923828125	2259.099853515625	491.1164245605469	-109.5786056518555	1738.678955078125	209.9894714355469	-273.7865295410156	2277.201171875	363.2622985839844	-125.5576095581055	2209.991943359375	405.5484008789062	-120.9080657958984	1805.322387695312	192.4981842041016	-360.2903747558594	2151.87109375	219.3408813476562	-148.3704376220703	2315.4208984375	123.1201248168945	-164.4140167236328	2092.908935546875	227.9959411621094	-208.9518280029297	2100.072509765625	194.3133087158203	-238.1517181396484	2079.07177734375	199.1183319091797	-185.6945190429688	1728.342163085938	208.8237152099609	-327.0063781738281
